<svg version="1.1" id="Layer_1" xmlns="http://www.w3.org/2000/svg" x="0" y="0" viewBox="0 0 607.2 469" style="enable-background:new 0 0 607.2 469" xml:space="preserve"><style>.st0{fill:#3f383c}</style><path class="st0" d="M123.5 36.2c-10.8-10.7-25.6-17.4-42-17.4-32.8 0-59.4 26.6-59.4 59.4v229.2c0 32.8 26.6 59.4 59.4 59.4s59.4-26.6 59.4-59.4V78.2c0-16.4-6.7-31.2-17.4-42zm-12.6 271.2c0 16.2-13.2 29.4-29.4 29.4s-29.4-13.2-29.4-29.4V78.2c0-16.2 13.2-29.4 29.4-29.4s29.4 13.2 29.4 29.4v229.2zM567.7 36.2c-10.8-10.7-25.6-17.4-42-17.4-32.8 0-59.4 26.6-59.4 59.4v229.2c0 32.8 26.6 59.4 59.4 59.4s59.4-26.6 59.4-59.4V78.2c0-16.4-6.6-31.2-17.4-42zm-12.6 271.2c0 16.2-13.2 29.4-29.4 29.4s-29.4-13.2-29.4-29.4V78.2c0-16.2 13.2-29.4 29.4-29.4s29.4 13.2 29.4 29.4v229.2zM271.6 36.2c-10.8-10.7-25.6-17.4-42-17.4-32.8 0-59.4 26.6-59.4 59.4V351.8c0 8.3 6.7 15 15 15s15-6.7 15-15v-273c0-16 12.5-29.5 28.5-30 16.6-.5 30.2 12.9 30.2 29.3v273.6c0 8.3 6.7 15 15 15s15-6.7 15-15V78.2c0-16.4-6.6-31.2-17.3-42zM419.6 36.2c-10.8-10.7-25.6-17.4-42-17.4-32.8 0-59.4 26.6-59.4 59.4V351.8c0 8.3 6.7 15 15 15s15-6.7 15-15v-273c0-16 12.5-29.5 28.5-30 16.6-.5 30.2 12.9 30.2 29.3v273.6c0 8.3 6.7 15 15 15s15-6.7 15-15V78.2c.1-16.4-6.5-31.2-17.3-42z"/><g><path class="st0" d="M45.7 450.2H34.2c-1.2 0-1.9-.6-2.1-1.7l-8.8-49.3c-.2-1.1.4-1.7 1.7-1.7h8.5c1.3 0 1.9.6 2 1.7l4.8 40.4h.6l7.9-40.7c.2-1 .7-1.5 1.7-1.5h9.2c1 0 1.6.5 1.8 1.4l8 40.8h.7l4.7-40.3c.1-1.2.7-1.8 2-1.8h8.5c1.3 0 1.9.6 1.7 1.8l-8.9 49.2c-.2 1.1-.8 1.7-1.9 1.7H64.8c-1.1 0-1.8-.6-2-1.7L55.4 410h-.3l-7.5 38.5c-.2 1.1-.8 1.7-1.9 1.7zM130.3 450.2h-9.2c-4.3 0-7.7-1.1-10-3.4-2.4-2.3-3.5-5.6-3.5-9.9v-26c0-4.3 1.2-7.6 3.5-9.9 2.3-2.3 5.7-3.4 10-3.4h9.2c4.3 0 7.7 1.1 10 3.4 2.4 2.3 3.5 5.6 3.5 9.9v26c0 4.3-1.2 7.6-3.5 9.9-2.3 2.2-5.7 3.4-10 3.4zm-7.5-9.1h5.8c1.7 0 3-.4 3.7-1.1.7-.7 1.1-2 1.1-3.7v-25c0-1.7-.4-3-1.1-3.7-.7-.7-2-1.1-3.7-1.1h-5.8c-1.8 0-3 .4-3.7 1.1-.7.7-1.1 2-1.1 3.7v25c0 1.8.4 3 1.1 3.7.7.8 1.9 1.1 3.7 1.1zM190.3 450.2h-9.2c-4.3 0-7.7-1.1-10-3.4-2.4-2.3-3.5-5.6-3.5-9.9v-26c0-4.3 1.2-7.6 3.5-9.9 2.3-2.3 5.7-3.4 10-3.4h9.2c4.3 0 7.7 1.1 10 3.4 2.4 2.3 3.5 5.6 3.5 9.9v26c0 4.3-1.2 7.6-3.5 9.9-2.3 2.2-5.7 3.4-10 3.4zm-7.5-9.1h5.8c1.7 0 3-.4 3.7-1.1.7-.7 1.1-2 1.1-3.7v-25c0-1.7-.4-3-1.1-3.7-.7-.7-2-1.1-3.7-1.1h-5.8c-1.8 0-3 .4-3.7 1.1-.7.7-1.1 2-1.1 3.7v25c0 1.8.4 3 1.1 3.7.7.8 1.9 1.1 3.7 1.1zM228.5 448.4v-49.3c0-1.1.6-1.7 1.7-1.7h20.3c4.3 0 7.6 1.2 10 3.5 2.4 2.3 3.6 5.6 3.6 9.9v26c0 4.3-1.2 7.6-3.6 9.9-2.4 2.3-5.7 3.5-10 3.5h-20.3c-1.2 0-1.7-.6-1.7-1.8zm11.3-7.3h8.9c1.7 0 3-.4 3.7-1.1.7-.7 1.1-2 1.1-3.7v-25c0-1.7-.4-3-1.1-3.7-.7-.7-2-1.1-3.7-1.1h-8.9c-.6 0-.9.3-.9.9v32.9c0 .5.3.8.9.8zM306.8 450.2h-11.5c-1.2 0-1.9-.6-2.1-1.7l-8.8-49.3c-.2-1.1.4-1.7 1.7-1.7h8.5c1.3 0 1.9.6 2 1.7l4.8 40.4h.6l7.9-40.7c.2-1 .7-1.5 1.7-1.5h9.2c1 0 1.6.5 1.8 1.4l8 40.8h.7l4.7-40.3c.1-1.2.7-1.8 2-1.8h8.5c1.3 0 1.9.6 1.7 1.8l-8.9 49.2c-.2 1.1-.8 1.7-1.9 1.7h-11.6c-1.1 0-1.8-.6-2-1.7l-7.4-38.5h-.3l-7.5 38.5c-.1 1.1-.7 1.7-1.8 1.7zM391.4 450.2h-9.2c-4.3 0-7.7-1.1-10-3.4-2.4-2.3-3.5-5.6-3.5-9.9v-26c0-4.3 1.2-7.6 3.5-9.9 2.3-2.3 5.7-3.4 10-3.4h9.2c4.3 0 7.7 1.1 10 3.4s3.5 5.6 3.5 9.9v26c0 4.3-1.2 7.6-3.5 9.9-2.4 2.2-5.7 3.4-10 3.4zm-7.6-9.1h5.8c1.7 0 3-.4 3.7-1.1.7-.7 1.1-2 1.1-3.7v-25c0-1.7-.4-3-1.1-3.7-.7-.7-2-1.1-3.7-1.1h-5.8c-1.8 0-3 .4-3.7 1.1-.7.7-1.1 2-1.1 3.7v25c0 1.8.4 3 1.1 3.7.8.8 2 1.1 3.7 1.1zM438.2 450.2h-7c-1.1 0-1.7-.6-1.7-1.7v-49.3c0-1.1.6-1.7 1.7-1.7h19.5c4.3 0 7.6 1.2 10 3.5 2.4 2.4 3.6 5.7 3.6 9.9v6.4c0 6.2-2.4 10.3-7.3 12.3v.3l8.8 18.3c.5 1.3 0 2-1.4 2h-6.6c-1 0-1.7-.1-2.1-.3-.4-.2-.8-.7-1.1-1.4l-8.2-17.7h-5.5c-.7 0-1 .3-1 .9v16.8c0 1.1-.5 1.7-1.7 1.7zm2.6-27.8h8c1.7 0 3-.4 3.9-1.1s1.2-1.9 1.2-3.6v-6.4c0-1.7-.4-2.9-1.2-3.7-.8-.8-2.1-1.1-3.9-1.1h-8c-.6 0-.9.3-.9.9v14.1c0 .6.3.9.9.9zM497.8 450.2h-7c-1.1 0-1.7-.6-1.7-1.7v-49.3c0-1.1.6-1.7 1.7-1.7h7c1.1 0 1.7.6 1.7 1.7v23.4h.2c.4-1.3 1.3-3 2.5-5.1l12.5-18.3c.7-1.1 1.8-1.7 3.2-1.7h8c.6 0 1 .2 1.1.5.1.4 0 .8-.5 1.4L511 420.9l17.4 27.2c.4.7.5 1.2.2 1.5-.2.4-.8.5-1.5.5h-6c-1.9 0-3.2-.6-3.9-1.7l-12.5-20.1-5.2 6.1v14c0 1.2-.5 1.8-1.7 1.8zM548.3 436.7v-1.6c0-1.1.6-1.7 1.7-1.7h7c1.1 0 1.7.6 1.7 1.7v.7c0 2.1.4 3.5 1.2 4.3.8.8 2.3 1.1 4.5 1.1h3.9c2.1 0 3.6-.4 4.5-1.2.8-.8 1.3-2.3 1.3-4.6v-1c0-1.6-.6-2.8-1.9-3.6-1.3-.8-2.9-1.4-4.8-1.5-1.9-.2-4-.5-6.2-.9-2.2-.5-4.3-1.1-6.2-1.8-1.9-.7-3.5-2.2-4.8-4.3-1.3-2.2-1.9-4.9-1.9-8.3v-2.9c0-4.3 1.2-7.6 3.6-9.9 2.4-2.3 5.7-3.5 10-3.5h8.2c4.3 0 7.7 1.2 10.1 3.5 2.4 2.4 3.6 5.7 3.6 9.9v1.6c0 1.1-.6 1.7-1.7 1.7h-7c-1.1 0-1.7-.6-1.7-1.7v-.5c0-2.1-.4-3.6-1.2-4.3-.8-.8-2.3-1.1-4.5-1.1h-3.2c-2.2 0-3.8.4-4.6 1.3-.8.8-1.2 2.5-1.2 5v1.6c0 2.6 2.2 4 6.7 4.4 4.6.4 8.8 1.3 12.4 2.8 1.9.8 3.5 2.3 4.8 4.4 1.3 2.1 1.9 4.8 1.9 8.1v2.8c0 4.3-1.2 7.6-3.6 9.9-2.4 2.4-5.7 3.5-10 3.5H562c-4.3 0-7.6-1.2-10-3.5-2.5-2.8-3.7-6.1-3.7-10.4z"/></g></svg>