<svg id="Layer_1" data-name="Layer 1" xmlns="http://www.w3.org/2000/svg" viewBox="0 0 562.96 347.91"><defs><style>.cls-1{fill:#3f383c}</style></defs><path class="cls-1" d="M240.8 141.07a59.36 59.36 0 0 0-101.34 42v229.15a59.36 59.36 0 1 0 118.72 0V183a59.17 59.17 0 0 0-17.38-41.93zm-12.62 271.15a29.36 29.36 0 1 1-58.72 0V183a29.36 29.36 0 0 1 58.72 0zM685 141.07A59.36 59.36 0 0 0 583.7 183v229.22a59.37 59.37 0 1 0 118.73 0V183A59.18 59.18 0 0 0 685 141.07zm-12.57 271.15a29.37 29.37 0 1 1-58.73 0V183a29.37 29.37 0 0 1 58.73 0zM388.88 141.07a59.36 59.36 0 0 0-101.34 42v273.52a15 15 0 0 0 15 15 15 15 0 0 0 15-15V183.67c0-16 12.51-29.5 28.48-30A29.38 29.38 0 0 1 376.26 183v273.59a15 15 0 0 0 15 15 15 15 0 0 0 15-15V183a59.17 59.17 0 0 0-17.38-41.93zM537 141.07a59.36 59.36 0 0 0-101.34 42v273.52a15 15 0 0 0 15 15 15 15 0 0 0 15-15V183.67c0-16 12.51-29.5 28.48-30a29.38 29.38 0 0 1 30.2 29.33v273.59a15 15 0 0 0 15 15 15 15 0 0 0 15-15V183A59.17 59.17 0 0 0 537 141.07z" transform="translate(-139.46 -123.68)"/></svg>